<svg xmlns="http://www.w3.org/2000/svg" width="25" height="25" fill="none" viewBox="0 0 25 25">
  <path fill="#609FFF" d="m24.328 10.874-.001-.002L14.127.674A2.286 2.286 0 0 0 12.5 0a2.29 2.29 0 0 0-1.628.674L.68 10.867l-.01.01a2.304 2.304 0 0 0 .004 3.25 2.289 2.289 0 0 0 1.598.675h.407v7.505A2.697 2.697 0 0 0 5.372 25h3.99a.733.733 0 0 0 .732-.732v-5.884a1.23 1.23 0 0 1 1.23-1.23h2.353a1.23 1.23 0 0 1 1.229 1.23v5.884c0 .404.328.732.732.732h3.99a2.697 2.697 0 0 0 2.695-2.693v-7.505h.377a2.305 2.305 0 0 0 1.629-3.928Z"/>
</svg>
