<svg xmlns="http://www.w3.org/2000/svg" width="26" height="22" fill="none" viewBox="0 0 26 22">
  <path fill="#828282" d="M17.714 1.571A1.571 1.571 0 0 1 19.286 0h3.142A1.571 1.571 0 0 1 24 1.571V20.43h.786a.786.786 0 0 1 0 1.571H1.214a.786.786 0 0 1 0-1.571H2v-4.715a1.571 1.571 0 0 1 1.571-1.571h3.143a1.571 1.571 0 0 1 1.572 1.571v4.715h1.571v-11a1.571 1.571 0 0 1 1.572-1.572h3.142a1.571 1.571 0 0 1 1.572 1.572v11h1.571V1.57Zm1.572 18.858h3.142V1.57h-3.142v18.86Zm-4.715 0v-11h-3.143v11h3.143Zm-7.857 0v-4.715H3.571v4.715h3.143Z"/>
</svg>
