<svg xmlns="http://www.w3.org/2000/svg" width="23" height="22" fill="none" viewBox="0 0 23 22">
  <path fill="#828282" d="M15.75 13a.75.75 0 1 0 0 1.5h2.5a.75.75 0 1 0 0-1.5h-2.5ZM0 2.75A2.75 2.75 0 0 1 2.75 0h13.5A2.75 2.75 0 0 1 19 2.75v1.258a3.75 3.75 0 0 1 3.5 3.742v10.5A3.75 3.75 0 0 1 18.75 22H3.754a3.75 3.75 0 0 1-3.75-3.75V7.75H0V3h.011A2.785 2.785 0 0 1 0 2.75ZM18.75 5.5H1.504v12.75a2.25 2.25 0 0 0 2.25 2.25H18.75A2.25 2.25 0 0 0 21 18.25V7.75a2.25 2.25 0 0 0-2.25-2.25ZM17.5 2.75c0-.69-.56-1.25-1.25-1.25H2.75a1.25 1.25 0 0 0 0 2.5H17.5V2.75Z"/>
</svg>
