<svg xmlns="http://www.w3.org/2000/svg" width="21" height="21" fill="none" viewBox="0 0 21 21">
  <g clip-path="url(#a)">
    <path fill="#828282" d="M17.925 13.575a10.46 10.46 0 0 0-3.99-2.502A6.068 6.068 0 0 0 16.57 6.07 6.077 6.077 0 0 0 10.5 0a6.077 6.077 0 0 0-6.07 6.07 6.068 6.068 0 0 0 2.635 5.003 10.46 10.46 0 0 0-3.99 2.502A10.431 10.431 0 0 0 0 21h1.64c0-4.885 3.975-8.86 8.86-8.86s8.86 3.975 8.86 8.86H21c0-2.805-1.092-5.441-3.075-7.425ZM10.5 10.5a4.435 4.435 0 0 1-4.43-4.43 4.435 4.435 0 0 1 4.43-4.43 4.435 4.435 0 0 1 4.43 4.43 4.435 4.435 0 0 1-4.43 4.43Z"/>
  </g>
  <defs>
    <clipPath id="a">
      <path fill="#fff" d="M0 0h21v21H0z"/>
    </clipPath>
  </defs>
</svg>
